#!OML:ASF F:\VICON\USERDATA\INSTALL\rory3\rory3.ASF
:FULLY-SPECIFIED
:DEGREES
242
root 0.0719252 16.1178 -2.1413 -160.198 -5.61881 184.883
lowerback 0.625709 5.65377 5.32789
upperback -1.45298 7.52536 1.49056
thorax -1.3623 3.64706 -1.52115
lowerneck -9.99212 2.29609 -2.08901
upperneck 45.8604 -5.74836 4.43723
head 19.7168 -4.04768 0.825108
rclavicle 1.63003e-014 -3.02153e-014
rhumerus -85.4986 -58.1732 74.0101
rradius 13.5561
rwrist 103.768
rhand 35.3333 -4.73589
rfingers 7.12502
rthumb 58.4272 -20.0677
lclavicle 1.63003e-014 -3.02153e-014
lhumerus -39.5275 -1.30425 -4.1382
lradius 15.7421
lwrist -65.2207
lhand 24.9285 29.7603
lfingers 7.12502
lthumb 49.0956 51.4453
rfemur -12.1663 9.4274 33.5988
rtibia 32.3306
rfoot -24.4923 -21.8523
rtoes 4.58011
lfemur -70.9928 4.10592 -26.622
ltibia 37.7325
lfoot -12.9629 38.1447
ltoes 35.0308
243
root 0.0278082 16.1224 -2.28127 -160.331 -5.23162 185.249
lowerback 0.445102 5.66193 5.72303
upperback -1.32872 7.50695 1.69932
thorax -1.11224 3.63463 -1.49359
lowerneck -9.92276 2.40268 -2.13278
upperneck 45.9732 -5.56425 4.25673
head 19.7505 -4.02493 0.772955
rclavicle -4.4329e-014 -2.38542e-014
rhumerus -81.715 -59.2018 70.9587
rradius 13.6689
rwrist 105.152
rhand 34.1042 -4.5836
rfingers 7.12502
rthumb 57.3541 -20.8708
lclavicle -4.4329e-014 -2.38542e-014
lhumerus -38.2147 -2.78432 -3.37035
lradius 15.8714
lwrist -66.1151
lhand 25.9532 29.4658
lfingers 7.12502
lthumb 50.0349 50.6702
rfemur -11.9474 8.88455 33.6576
rtibia 32.859
rfoot -22.9982 -20.9905
rtoes 4.56199
lfemur -70.2401 4.35506 -26.8253
ltibia 37.8894
lfoot -7.4325 39.4399
ltoes 32.0083
244
root -0.0152279 16.1256 -2.42542 -160.461 -4.95239 185.684
lowerback 0.0779829 5.68586 6.14667
upperback -1.0658 7.47759 2.00147
thorax -0.624166 3.62343 -1.35753
lowerneck -10.0472 2.446 -2.4001
upperneck 46.0564 -5.43641 4.21969
head 19.8387 -4.02986 0.823129
rclavicle 5.96354e-014 3.65764e-014
rhumerus -77.4859 -59.8718 67.4537
rradius 13.7956
rwrist 106.247
rhand 32.4162 -3.54619
rfingers 7.12502
rthumb 55.8651 -21.04
lclavicle 5.96354e-014 3.65764e-014
lhumerus -36.7466 -3.16633 -3.02571
lradius 15.9561
lwrist -68.387
lhand 27.146 28.8288
lfingers 7.12502
lthumb 51.1237 49.4409
rfemur -11.7267 8.31568 33.8393
rtibia 33.4334
rfoot -22.1837 -20.0923
rtoes 1.85868
lfemur -69.3599 4.59089 -26.8803
ltibia 38.0247
lfoot -4.3712 37.0831
ltoes 30.797
245
root -0.0530593 16.1023 -2.56819 -160.564 -4.54011 185.924
lowerback -0.216205 5.71322 6.29523
upperback -0.881796 7.46536 2.19035
thorax -0.27673 3.62238 -1.20196
lowerneck -9.88545 2.54078 -2.33799
upperneck 46.0804 -5.24819 4.00216
head 19.7789 -3.98611 0.737971
rclavicle -4.77083e-015 3.18055e-014
rhumerus -73.716 -60.5514 64.4008
rradius 13.9607
rwrist 107.429
rhand 30.768 -2.19459
rfingers 7.12502
rthumb 54.3961 -20.7613
lclavicle -4.77083e-015 3.18055e-014
lhumerus -35.3412 -4.20755 -2.51892
lradius 15.8494
lwrist -69.2824
lhand 27.5615 28.7745
lfingers 7.12502
lthumb 51.5019 49.1714
rfemur -11.5468 7.44833 33.7669
rtibia 34.0737
rfoot -21.6464 -18.8105
rtoes -0.437657
lfemur -68.74 4.79528 -27.0305
ltibia 38.0727
lfoot 5.53497 35.2332
ltoes 14.8002
246
root -0.0980797 16.1055 -2.70809 -160.552 -4.07422 185.865
lowerback -0.481709 5.69001 6.25409
upperback -0.826693 7.40652 2.2155
thorax -0.0839223 3.59843 -1.12372
lowerneck -9.52897 2.67198 -2.09942
upperneck 45.9953 -4.966 3.66799
head 19.5715 -3.89197 0.584626
rclavicle 3.97569e-016 -2.14687e-014
rhumerus -68.9003 -61.0316 60.1903
rradius 13.9377
rwrist 108.002
rhand 28.6687 -1.12646
rfingers 7.12502
rthumb 52.5062 -20.9266
lclavicle 3.97569e-016 -2.14687e-014
lhumerus -34.0494 -5.91296 -1.83657
lradius 15.5655
lwrist -68.8034
lhand 27.9605 29.2837
lfingers 7.12502
lthumb 51.8644 49.4695
rfemur -11.5133 6.65866 33.2901
rtibia 34.7251
rfoot -20.6277 -17.6205
rtoes 1.36623
lfemur -68.0435 4.85157 -27.4856
ltibia 38.1016
lfoot 7.60968 34.0658
ltoes 9.12968
247
root -0.122837 16.1114 -2.86123 -160.654 -3.48957 185.926
lowerback -0.730641 5.72783 5.98259
upperback -0.706252 7.42487 2.35771
thorax 0.127767 3.6135 -0.799777
lowerneck -9.30419 2.75911 -2.35917
upperneck 46.0562 -4.98084 3.89227
head 19.5656 -3.94738 0.735978
rclavicle 3.18055e-015 2.3059e-014
rhumerus -62.481 -60.8026 54.2606
rradius 13.7923
rwrist 107.741
rhand 26.7401 -0.216336
rfingers 7.12502
rthumb 50.7538 -21.0341
lclavicle 3.18055e-015 2.3059e-014
lhumerus -32.7833 -8.45338 -0.681843
lradius 15.3829
lwrist -67.7657
lhand 27.4725 29.7631
lfingers 7.12502
lthumb 51.4209 50.2065
rfemur -11.3599 6.37783 33.0827
rtibia 35.4299
rfoot -19.2863 -17.1299
rtoes 4.35413
lfemur -67.2339 4.89431 -27.5193
ltibia 38.1128
lfoot 5.7246 34.1137
ltoes 11.0398
248
root -0.148864 16.1087 -3.00784 -160.645 -2.98976 185.738
lowerback -1.00769 5.69406 5.5036
upperback -0.61974 7.36118 2.41367
thorax 0.300584 3.59042 -0.454017
lowerneck -9.10567 2.89573 -2.2935
upperneck 46.1696 -4.84647 3.77056
head 19.5693 -3.92752 0.682721
rclavicle 4.69132e-014 9.46215e-014
rhumerus -56.4455 -60.3785 48.6292
rradius 13.7429
rwrist 106.986
rhand 25.8106 0.134177
rfingers 7.12502
rthumb 49.9043 -21.1387
lclavicle 4.69132e-014 9.46215e-014
lhumerus -31.5373 -10.7689 0.291298
lradius 15.3549
lwrist -67.1133
lhand 26.7249 30.1919
lfingers 7.12502
lthumb 50.7399 51.0172
rfemur -11.3763 5.7253 32.606
rtibia 36.1792
rfoot -18.0449 -16.5764
rtoes 5.25145
lfemur -66.5415 4.68641 -27.7235
ltibia 38.1267
lfoot 3.93708 34.1467
ltoes 12.1549
249
root -0.176196 16.1066 -3.1472 -160.559 -2.54498 185.741
lowerback -1.17112 5.67212 5.30146
upperback -0.686212 7.32471 2.42916
thorax 0.294256 3.57156 -0.3183
lowerneck -8.58831 3.01765 -2.0134
upperneck 46.1179 -4.73335 3.57595
head 19.3619 -3.89206 0.557656
rclavicle 1.59028e-014 -1.19271e-014
rhumerus -52.4784 -60.6192 45.1581
rradius 13.7565
rwrist 107.124
rhand 25.0442 0.115225
rfingers 7.12502
rthumb 49.2018 -21.5168
lclavicle 1.59028e-014 -1.19271e-014
lhumerus -30.3225 -13.4245 1.13074
lradius 15.4203
lwrist -66.1793
lhand 28.8672 30.6076
lfingers 7.12502
lthumb 52.6856 50.297
rfemur -11.6147 4.957 32.2999
rtibia 37.0234
rfoot -16.8863 -15.9598
rtoes 3.74265
lfemur -65.837 3.95707 -27.159
ltibia 38.1664
lfoot -1.14727 34.7716
ltoes 19.0844
250
root -0.202717 16.1027 -3.28691 -160.443 -2.02495 185.877
lowerback -1.45684 5.64168 5.2103
upperback -0.662296 7.25907 2.46883
thorax 0.459013 3.54098 -0.199561
lowerneck -8.23234 3.19204 -1.9424
upperneck 46.1264 -4.63379 3.6669
head 19.263 -3.86335 0.604705
rclavicle -4.73108e-014 -7.15625e-014
rhumerus -48.689 -61.221 41.763
rradius 13.7197
rwrist 107.192
rhand 23.9406 -0.186063
rfingers 7.12502
rthumb 48.1868 -22.3113
lclavicle -4.73108e-014 -7.15625e-014
lhumerus -29.289 -15.6463 1.81954
lradius 15.5012
lwrist -65.7077
lhand 29.4767 31.1149
lfingers 7.12502
lthumb 53.2358 50.4567
rfemur -11.9853 4.14406 32.0823
rtibia 38.0394
rfoot -15.9306 -15.3513
rtoes 2.6803
lfemur -65.181 3.31134 -26.4632
ltibia 38.2102
lfoot -4.75245 34.8321
ltoes 22.7322
